<svg width="435" height="61" viewBox="0 0 435 61" fill="none" xmlns="http://www.w3.org/2000/svg">
<path d="M30.9746 17.048C31.5946 15.87 32.2146 14.444 32.7106 13.142H20.0006C20.5586 14.444 21.1166 15.87 21.4266 17.048H30.9746ZM0.53257 13.142V5.02H21.9226V0.989999H30.7886V5.02H52.7986V13.142H42.6926C41.8866 14.63 41.1426 15.932 40.4606 17.048H51.8686V50.528C51.8686 54.62 51.0626 57.038 48.5206 58.402C45.9786 59.766 42.6306 59.952 38.1046 59.952C37.8566 58.278 37.1746 55.922 36.4306 53.876H22.5426V56.976H14.9786V37.136H38.7246V51.52C40.2746 51.582 41.7006 51.582 42.3206 51.582C43.2506 51.582 43.6226 51.272 43.6226 50.404V33.602C42.5686 34.842 41.0806 35.276 38.9726 35.276H34.9426C29.1146 35.276 27.9366 33.292 27.9366 27.526V24.736H24.4646C23.9686 31.37 22.1086 35.462 12.8706 37.57C12.4366 36.268 11.3826 34.346 10.3286 32.92V59.766H2.20657V17.048H12.1266C11.7546 15.746 11.1966 14.32 10.7626 13.142H0.53257ZM10.3286 31.122C15.7226 30.068 16.7146 28.146 16.9626 24.736H10.3286V31.122ZM22.5426 47.366H31.0366V43.646H22.5426V47.366ZM35.2526 27.402C35.2526 28.828 35.3766 28.952 36.1826 28.952H37.9806C38.8486 28.952 39.0346 28.518 39.2206 25.852C40.2126 26.596 41.9486 27.34 43.6226 27.836V24.736H35.2526V27.402ZM95.0327 11.964H75.8747V18.35H95.0327V11.964ZM59.8167 59.89V31.308H83.1907V59.642H74.6347V56.914H67.8767V59.89H59.8167ZM67.6287 26.906V3.346H103.837V26.906H67.6287ZM67.8767 48.296H74.6347V39.926H67.8767V48.296ZM87.3447 59.89V31.308H111.339V59.642H102.721V56.914H95.5907V59.89H87.3447ZM95.5907 48.296H102.721V39.926H95.5907V48.296ZM136.771 9.484H119.721V2.788H136.771V9.484ZM116.497 18.536V11.53H138.817V18.536H116.497ZM119.163 59.89V38.376H137.143V52.388C143.901 48.11 144.893 41.6 145.389 34.594H140.491V12.15H144.459C143.653 9.546 142.289 6.322 140.925 3.842L148.551 1.3C150.411 4.276 152.147 8.306 152.953 11.096L150.101 12.15H161.075L157.913 11.22C159.091 8.368 160.393 4.09 161.013 0.865997L169.879 3.16C168.515 6.508 167.151 9.732 165.911 12.15H170.499V34.594H163.865V49.288C163.865 51.272 163.865 51.52 164.423 51.52H165.229C165.973 51.52 166.221 50.404 166.283 43.026C167.833 44.452 171.305 45.816 173.413 46.436C172.793 56.604 170.871 59.394 166.221 59.394H162.873C156.983 59.394 155.743 56.728 155.743 49.35V34.594H153.945C153.201 44.824 151.279 54.124 141.855 60.138C140.925 58.154 139.003 55.302 137.143 53.566V57.658H126.231V59.89H119.163ZM119.349 36.144V29.448H136.647V36.144H119.349ZM119.349 27.34V20.644H136.647V27.34H119.349ZM126.231 50.652H129.889V45.382H126.231V50.652ZM148.737 26.968H161.695V19.838H148.737V26.968ZM185.453 12.274V19.342H191.095V12.274H185.453ZM177.579 47.986V4.152H199.031V42.84H185.453V47.986H177.579ZM185.453 34.656H191.095V27.34H185.453V34.656ZM191.529 54.372C201.511 46.932 202.317 35.4 202.317 26.038V3.408H229.845V50.032C229.845 54.434 228.977 56.79 226.435 58.216C223.893 59.642 220.421 59.89 215.523 59.89C215.151 57.41 213.787 53.442 212.547 51.21C215.399 51.396 218.933 51.334 219.925 51.334C220.979 51.334 221.351 50.962 221.351 49.908V40.484H209.447C207.897 47.986 204.611 55.426 198.039 60.386C196.737 58.65 193.389 55.55 191.529 54.372ZM210.501 32.424H221.351V26.1H210.749C210.749 28.084 210.687 30.192 210.501 32.424ZM210.749 18.04H221.351V11.716H210.749V18.04ZM244.365 47.49C250.627 47.552 255.649 46.932 259.493 45.568C266.995 42.902 270.343 37.384 269.785 30.874C269.289 25.356 266.189 21.76 257.695 21.512C252.921 21.388 249.263 22.38 236.677 27.03V16.49C244.117 13.514 251.061 11.902 257.881 11.902C271.087 11.902 278.651 17.978 279.581 30.688C280.821 47.304 269.351 56.852 244.365 56.852V47.49ZM301.64 47.552C297.92 44.266 294.572 41.29 293.084 39.678C288.93 35.152 289.302 29.076 293.022 25.418C295.688 22.876 306.29 14.134 312.738 9.112H328.052C315.218 19.404 306.104 25.604 301.454 30.688C301.082 31.122 300.834 31.556 300.834 32.114C300.834 32.672 301.082 33.292 301.64 33.912C303.376 35.648 311.87 43.646 328.238 58.402H313.854L301.64 47.552ZM346.986 58.464C342.088 57.038 339.05 53.938 339.05 48.978C339.05 47.676 339.298 46.25 340.228 44.39C342.088 40.794 345.56 38.376 351.636 39.554C356.906 40.608 359.634 43.274 361.804 48.234C363.602 46.436 364.222 44.08 364.222 41.848C364.222 37.136 361.494 34.718 354.798 34.904C348.164 35.09 344.072 37.694 340.91 40.36L333.594 46.436V34.656L352.938 20.024H336.694V10.352H367.198V19.032L356.162 27.154C359.944 26.41 363.044 26.596 365.524 27.712C370.236 29.82 373.274 35.214 373.398 41.662C373.522 48.73 369.864 53.938 364.47 56.728C359.51 59.27 352.566 60.138 346.986 58.464ZM347.358 46.994C346.366 48.606 347.544 50.466 350.086 51.396C352.008 52.016 354.798 51.644 355.418 51.52C354.364 48.606 352.504 46.25 349.838 45.94C348.474 45.754 347.792 46.312 347.358 46.994ZM406.423 21.636L405.307 24.798H419.691V21.636H406.423ZM378.957 43.894C384.475 41.104 388.753 37.136 391.977 32.362H385.777V24.798H396.069C396.503 23.744 396.937 22.69 397.309 21.636H380.569V13.824H399.541C399.727 12.832 399.975 11.84 400.161 10.848H387.079V3.284H428.495V13.824H434.385V21.636H428.495V32.362H402.021C401.277 33.726 400.533 35.028 399.727 36.33H429.549V59.704H420.373V57.844H401.649V59.89H392.907V44.762C390.365 47.18 387.575 49.288 384.351 51.086C383.173 49.04 380.631 45.63 378.957 43.894ZM401.649 50.032H420.373V44.142H401.649V50.032ZM408.593 13.824H419.691V10.848H409.213C409.027 11.84 408.841 12.832 408.593 13.824Z" fill="black"/>
</svg>
